<?xml version="1.0" standalone="no"?>
<!DOCTYPE svg PUBLIC "-//W3C//DTD SVG 20010904//EN"
 "http://www.w3.org/TR/2001/REC-SVG-20010904/DTD/svg10.dtd">
<svg version="1.0" xmlns="http://www.w3.org/2000/svg"
 width="500.000000pt" height="500.000000pt" viewBox="0 0 500.000000 500.000000"
 preserveAspectRatio="xMidYMid meet">

<g transform="translate(0.000000,500.000000) scale(0.100000,-0.100000)"
fill="#000000" stroke="none">
<path d="M2023 3574 c-55 -20 -126 -84 -151 -136 -41 -88 -38 -159 8 -171 31
-8 59 23 69 74 16 91 76 143 166 143 88 0 156 -58 170 -147 9 -53 20 -67 56
-67 74 0 59 133 -27 228 -74 83 -188 112 -291 76z"/>
<path d="M2799 3577 c-115 -43 -189 -141 -189 -248 0 -43 28 -70 61 -62 23 6
35 29 44 88 9 51 76 119 129 129 60 11 105 -3 151 -48 32 -30 45 -52 50 -81
13 -82 42 -108 84 -78 40 28 20 139 -38 212 -63 79 -203 121 -292 88z"/>
<path d="M2022 2983 c-59 -23 -2 -162 114 -280 145 -148 334 -197 519 -133
129 44 243 146 315 281 35 66 38 99 11 123 -32 29 -53 15 -96 -64 -75 -139
-192 -229 -328 -252 -170 -28 -350 71 -441 243 -45 84 -59 96 -94 82z"/>
<path d="M1830 1776 c0 -42 4 -76 9 -76 5 0 11 10 13 23 4 32 41 34 62 3 9
-15 21 -26 27 -26 7 0 5 10 -4 24 -14 21 -14 26 -2 36 19 16 19 54 0 70 -8 7
-35 15 -60 18 l-45 5 0 -77z m91 38 c19 -23 -1 -49 -37 -49 -30 0 -42 20 -30
51 7 19 50 18 67 -2z"/>
<path d="M2010 1775 l0 -75 55 0 c30 0 55 5 55 10 0 6 -20 10 -45 10 -41 0
-45 2 -45 25 0 22 5 25 38 26 l37 2 -35 6 c-26 4 -36 12 -38 29 -3 20 1 22 37
22 23 0 41 5 41 10 0 6 -22 10 -50 10 l-50 0 0 -75z"/>
<path d="M2196 1829 c-63 -49 -10 -145 70 -125 34 9 30 27 -5 20 -41 -9 -71
11 -71 46 0 41 26 63 67 57 37 -6 46 7 11 17 -36 9 -43 7 -72 -15z"/>
<path d="M2379 1835 c-49 -26 -45 -103 6 -127 36 -16 87 1 103 36 17 35 2 78
-34 95 -32 14 -43 14 -75 -4z m75 -18 c21 -16 24 -60 6 -82 -7 -8 -25 -15 -40
-15 -33 0 -52 21 -52 57 0 28 24 53 52 53 9 0 24 -6 34 -13z"/>
<path d="M2540 1840 c0 -19 59 -140 68 -140 8 0 72 130 72 145 0 3 -4 5 -9 5
-5 0 -19 -25 -32 -55 -12 -30 -26 -55 -30 -55 -4 0 -17 25 -30 55 -21 50 -39
71 -39 45z"/>
<path d="M2730 1775 l0 -75 55 0 c30 0 55 5 55 10 0 6 -20 10 -45 10 -41 0
-45 2 -45 25 0 22 5 25 38 26 l37 2 -35 6 c-26 4 -36 12 -38 29 -3 20 1 22 37
22 23 0 41 5 41 10 0 6 -22 10 -50 10 l-50 0 0 -75z"/>
<path d="M2890 1776 c0 -42 4 -76 9 -76 5 0 11 10 13 23 4 32 41 34 62 3 9
-15 21 -26 27 -26 7 0 5 10 -4 24 -14 21 -14 26 -2 36 19 16 19 54 0 70 -8 7
-35 15 -60 18 l-45 5 0 -77z m91 38 c19 -23 -1 -49 -37 -49 -30 0 -42 20 -30
51 7 19 50 18 67 -2z"/>
<path d="M3071 1813 c12 -21 26 -42 31 -47 4 -6 8 -23 8 -38 0 -15 5 -28 10
-28 6 0 10 12 10 28 0 15 11 45 25 67 26 42 30 55 17 55 -4 0 -16 -16 -26 -35
-11 -19 -22 -35 -27 -35 -4 0 -16 16 -28 35 -11 19 -25 35 -31 35 -7 0 -2 -17
11 -37z"/>
<path d="M2271 1587 c-13 -6 -34 -25 -45 -40 -20 -27 -21 -42 -24 -338 l-3
-309 75 0 76 0 0 115 0 115 55 0 55 0 0 -115 0 -115 76 0 75 0 -3 313 c-3 346
-5 353 -70 376 -43 15 -237 14 -267 -2z m187 -214 l3 -123 -56 0 -55 0 0 118
c0 65 3 122 7 126 4 4 28 6 53 4 l45 -3 3 -122z"/>
<path d="M1510 1245 l0 -345 156 0 c171 0 209 9 235 57 20 38 20 538 0 576
-26 48 -64 57 -235 57 l-156 0 0 -345z m255 0 l0 -240 -52 -3 -53 -3 0 246 0
246 53 -3 52 -3 0 -240z"/>
<path d="M1990 1245 l0 -345 75 0 75 0 0 345 0 345 -75 0 -75 0 0 -345z"/>
<path d="M2680 1245 l0 -345 75 0 75 0 0 140 0 140 45 0 45 0 0 -140 0 -140
76 0 75 0 -3 159 c-3 149 -5 161 -25 183 -22 23 -22 24 -3 36 28 17 43 86 37
164 -7 79 -18 103 -60 128 -28 17 -51 20 -184 20 l-153 0 0 -345z m245 222 c3
-12 5 -56 3 -97 l-3 -75 -47 -3 -48 -3 0 100 0 101 45 0 c38 0 45 -3 50 -23z"/>
<path d="M3090 1581 c0 -5 32 -101 70 -214 l70 -205 0 -131 0 -131 75 0 75 0
0 124 0 125 75 218 c41 120 75 219 75 220 0 2 -31 3 -70 3 l-69 0 -20 -67
c-11 -38 -29 -102 -42 -143 l-22 -75 -40 143 -41 142 -68 0 c-37 0 -68 -4 -68
-9z"/>
</g>
</svg>
